<svg width="50" height="17" viewBox="0 0 50 17" fill="none" xmlns="http://www.w3.org/2000/svg">
<path d="M0.695312 13V1.55469H3.19531L6.65625 9.82031L10.1406 1.55469H12.6094V13H10.6562V7.34375L10.7188 4.10156L10.4297 4.96094L7.5 12.2188H5.6875L2.82031 4.92188L2.53125 4.0625L2.60156 7.375V13H0.695312ZM21.0859 12.3281C20.4036 12.8854 19.5052 13.1641 18.3906 13.1641C17.276 13.1641 16.3776 12.8854 15.6953 12.3281C15.0182 11.7708 14.6797 10.9531 14.6797 9.875V4.41406H16.7344V9.79688C16.7344 10.4375 16.8672 10.901 17.1328 11.1875C17.4036 11.474 17.8307 11.6172 18.4141 11.6172C18.987 11.6172 19.4036 11.4766 19.6641 11.1953C19.9297 10.9089 20.0625 10.4427 20.0625 9.79688V4.41406H22.1094V9.875C22.1094 10.9479 21.7682 11.7656 21.0859 12.3281ZM26.7266 13.1562C25.4609 13.1562 24.4479 12.9401 23.6875 12.5078L23.8984 10.9688C24.2422 11.1562 24.6797 11.3255 25.2109 11.4766C25.7422 11.6224 26.2266 11.6953 26.6641 11.6953C27.1172 11.6953 27.4688 11.612 27.7188 11.4453C27.974 11.2734 28.1042 11.0234 28.1094 10.6953C28.1094 10.3984 27.9896 10.1641 27.75 9.99219C27.5156 9.82031 27.0651 9.60677 26.3984 9.35156C26.1693 9.26823 26.0208 9.21354 25.9531 9.1875C25.1615 8.88021 24.5911 8.53906 24.2422 8.16406C23.8932 7.78385 23.7188 7.27083 23.7188 6.625C23.7188 5.84375 24 5.24479 24.5625 4.82812C25.1302 4.41146 25.9193 4.20312 26.9297 4.20312C28.0234 4.20312 28.9844 4.40885 29.8125 4.82031L29.3047 6.23438C28.487 5.85417 27.7083 5.66406 26.9688 5.66406C26.5573 5.66406 26.2344 5.73438 26 5.875C25.7708 6.01042 25.6562 6.21875 25.6562 6.5C25.6562 6.76562 25.7682 6.97396 25.9922 7.125C26.2161 7.27083 26.6536 7.46354 27.3047 7.70312C27.3255 7.70833 27.3932 7.73177 27.5078 7.77344C27.6224 7.8151 27.7109 7.84896 27.7734 7.875C28.5599 8.16146 29.138 8.50521 29.5078 8.90625C29.8776 9.30208 30.0625 9.82031 30.0625 10.4609C30.0573 11.3203 29.7656 11.9844 29.1875 12.4531C28.6094 12.9219 27.7891 13.1562 26.7266 13.1562ZM31.7344 13V4.41406H33.7812V13H31.7344ZM31.7344 3.16406V1.41406H33.7891V3.16406H31.7344Z" fill="#EBEBEB"/>
<path d="M36.4688 13V5.77344H35.1094L35.2422 4.57031L36.4688 4.41406V3.9375C36.4688 3.41667 36.5156 2.97135 36.6094 2.60156C36.7083 2.23177 36.8672 1.91667 37.0859 1.65625C37.3047 1.39062 37.5964 1.19531 37.9609 1.07031C38.3307 0.940104 38.7839 0.875 39.3203 0.875C39.8411 0.875 40.3724 0.924479 40.9141 1.02344L40.7344 2.54688C40.3073 2.48958 39.9714 2.46094 39.7266 2.46094C39.2891 2.46094 38.9766 2.56771 38.7891 2.78125C38.6068 2.98958 38.5156 3.33854 38.5156 3.82812V4.41406H40.5312V5.77344H38.5156V13H36.4688ZM42.3125 16.6172C41.9792 16.6172 41.625 16.5964 41.25 16.5547L41.1484 14.9688C41.388 14.9948 41.6927 15.0078 42.0625 15.0078C42.5365 15.0078 42.9167 14.9141 43.2031 14.7266C43.4896 14.5391 43.7266 14.2057 43.9141 13.7266C43.9349 13.6745 44.0391 13.3802 44.2266 12.8438L40.7734 4.41406H42.9609L45.2188 10.6406C45.3854 10.0208 45.7578 8.86979 46.3359 7.1875C46.9193 5.50521 47.2396 4.58073 47.2969 4.41406H49.4844C47.1042 10.7057 45.9036 13.8776 45.8828 13.9297C45.513 14.8932 45.0469 15.5807 44.4844 15.9922C43.9219 16.4089 43.1979 16.6172 42.3125 16.6172Z" fill="#22C3B1"/>
</svg>
